{
  "asset": {
    "generator": "Khronos glTF Blender I/O v1.5.17",
    "version": "2.0"
  },
  "scene": 0,
  "scenes": [
    {
      "name": "Scene",
      "nodes": [
        0
      ]
    }
  ],
  "nodes": [
    {
      "mesh": 0,
      "name": "sphere_gltf"
    }
  ],
  "materials": [
    {
      "doubleSided": true,
      "name": "bark_brown_01",
      "normalTexture": {
        "index": 0
      },
      "pbrMetallicRoughness": {
        "baseColorTexture": {
          "index": 1
        },
        "metallicFactor": 0,
        "metallicRoughnessTexture": {
          "index": 2
        }
      }
    }
  ],
  "meshes": [
    {
      "name": "Sphere.001",
      "primitives": [
        {
          "attributes": {
            "POSITION": 0,
            "NORMAL": 1,
            "TEXCOORD_0": 2
          },
          "indices": 3,
          "material": 0
        }
      ]
    }
  ],
  "textures": [
    {
      "sampler": 0,
      "source": 0
    },
    {
      "sampler": 0,
      "source": 1
    },
    {
      "sampler": 0,
      "source": 2
    }
  ],
  "images": [
    {
      "mimeType": "image/jpeg",
      "name": "bark_brown_01_nor_gl_4k",
      "uri": "textures/bark_brown_01_nor_gl_2k.jpg"
    },
    {
      "mimeType": "image/jpeg",
      "name": "bark_brown_01_diff_4k",
      "uri": "textures/bark_brown_01_diff_2k.jpg"
    },
    {
      "mimeType": "image/jpeg",
      "name": "bark_brown_01_rough_4k",
      "uri": "textures/bark_brown_01_rough_2k.jpg"
    }
  ],
  "accessors": [
    {
      "bufferView": 0,
      "componentType": 5126,
      "count": 53856,
      "max": [
        0.49028366804122925,
        0.5071337819099426,
        0.4894201159477234
      ],
      "min": [
        -0.4902835488319397,
        -0.5060396194458008,
        -0.4894184172153473
      ],
      "type": "VEC3"
    },
    {
      "bufferView": 1,
      "componentType": 5126,
      "count": 53856,
      "type": "VEC3"
    },
    {
      "bufferView": 2,
      "componentType": 5126,
      "count": 53856,
      "type": "VEC2"
    },
    {
      "bufferView": 3,
      "componentType": 5123,
      "count": 322170,
      "type": "SCALAR"
    }
  ],
  "bufferViews": [
    {
      "buffer": 0,
      "byteLength": 646272,
      "byteOffset": 0
    },
    {
      "buffer": 0,
      "byteLength": 646272,
      "byteOffset": 646272
    },
    {
      "buffer": 0,
      "byteLength": 430848,
      "byteOffset": 1292544
    },
    {
      "buffer": 0,
      "byteLength": 644340,
      "byteOffset": 1723392
    }
  ],
  "samplers": [
    {
      "magFilter": 9729,
      "minFilter": 9987
    }
  ],
  "buffers": [
    {
      "byteLength": 2367732,
      "uri": "bark_brown_01.bin"
    }
  ]
}